amp_velcurve_1=0.74647
amp_velcurve_2=0.75526
amp_velcurve_3=0.76414
amp_velcurve_4=0.77313
amp_velcurve_5=0.78223
amp_velcurve_6=0.79143
amp_velcurve_7=0.80074
amp_velcurve_8=0.81016
amp_velcurve_9=0.81969
amp_velcurve_10=0.82933
amp_velcurve_11=0.83909
amp_velcurve_12=0.84896
amp_velcurve_13=0.85895
amp_velcurve_14=0.86906
amp_velcurve_15=0.87928
amp_velcurve_16=0.88962
amp_velcurve_17=0.90009
amp_velcurve_18=0.91068
amp_velcurve_19=0.92139
amp_velcurve_20=0.93223
amp_velcurve_21=0.9432
amp_velcurve_22=0.95429
amp_velcurve_23=0.96552
amp_velcurve_24=0.97688
amp_velcurve_25=0.98837
amp_velcurve_26=1
amp_velcurve_27=0.67101
amp_velcurve_28=0.71037
amp_velcurve_29=0.75203
amp_velcurve_30=0.79614
amp_velcurve_31=0.84283
amp_velcurve_32=0.89227
amp_velcurve_33=0.9446
amp_velcurve_34=1
amp_velcurve_35=0.83566
amp_velcurve_36=1
amp_velcurve_37=0.58402
amp_velcurve_38=0.63879
amp_velcurve_39=0.69869
amp_velcurve_40=0.76421
amp_velcurve_41=0.83588
amp_velcurve_42=0.91426
amp_velcurve_43=1
amp_velcurve_44=0.97022
amp_velcurve_45=0.985
amp_velcurve_46=1
amp_velcurve_47=0.8544
amp_velcurve_48=0.90041
amp_velcurve_49=0.9489
amp_velcurve_50=1
amp_velcurve_51=0.76241
amp_velcurve_52=0.80492
amp_velcurve_53=0.84979
amp_velcurve_54=0.89717
amp_velcurve_55=0.94719
amp_velcurve_56=1
amp_velcurve_57=0.94446
amp_velcurve_58=0.9522
amp_velcurve_59=0.96
amp_velcurve_60=0.96787
amp_velcurve_61=0.97581
amp_velcurve_62=0.98381
amp_velcurve_63=0.99187
amp_velcurve_64=1
amp_velcurve_65=0.91537
amp_velcurve_66=0.92701
amp_velcurve_67=0.93879
amp_velcurve_68=0.95073
amp_velcurve_69=0.96281
amp_velcurve_70=0.97505
amp_velcurve_71=0.98745
amp_velcurve_72=1
amp_velcurve_73=0.90123
amp_velcurve_74=0.91472
amp_velcurve_75=0.92841
amp_velcurve_76=0.94231
amp_velcurve_77=0.95641
amp_velcurve_78=0.97072
amp_velcurve_79=0.98525
amp_velcurve_80=1
amp_velcurve_81=0.899
amp_velcurve_82=0.91278
amp_velcurve_83=0.92677
amp_velcurve_84=0.94098
amp_velcurve_85=0.9554
amp_velcurve_86=0.97004
amp_velcurve_87=0.98491
amp_velcurve_88=1
amp_velcurve_89=0.91757
amp_velcurve_90=0.92892
amp_velcurve_91=0.9404
amp_velcurve_92=0.95203
amp_velcurve_93=0.9638
amp_velcurve_94=0.97572
amp_velcurve_95=0.98779
amp_velcurve_96=1
amp_velcurve_97=0.86212
amp_velcurve_98=0.88058
amp_velcurve_99=0.89945
amp_velcurve_100=0.91871
amp_velcurve_101=0.93839
amp_velcurve_102=0.9585
amp_velcurve_103=0.97903
amp_velcurve_104=1
amp_velcurve_105=0.87069
amp_velcurve_106=0.88809
amp_velcurve_107=0.90583
amp_velcurve_108=0.92393
amp_velcurve_109=0.94238
amp_velcurve_110=0.96121
amp_velcurve_111=0.98041
amp_velcurve_112=1
amp_velcurve_113=0.87208
amp_velcurve_114=0.8893
amp_velcurve_115=0.90686
amp_velcurve_116=0.92477
amp_velcurve_117=0.94303
amp_velcurve_118=0.96165
amp_velcurve_119=0.98064
amp_velcurve_120=1
amp_velcurve_121=0.83165
amp_velcurve_122=0.85759
amp_velcurve_123=0.88435
amp_velcurve_124=0.91195
amp_velcurve_125=0.9404
amp_velcurve_126=0.96974
amp_velcurve_127=1
<region> sample=A5v1.flac lovel=1 hivel=26
<region> sample=A5v2.flac lovel=27 hivel=34
<region> sample=A5v3.flac lovel=35 hivel=36
<region> sample=A5v4.flac lovel=37 hivel=43
<region> sample=A5v5.flac lovel=44 hivel=46
<region> sample=A5v6.flac lovel=47 hivel=50
<region> sample=A5v7.flac lovel=51 hivel=56
<region> sample=A5v8.flac lovel=57 hivel=64
<region> sample=A5v9.flac lovel=65 hivel=72
<region> sample=A5v10.flac lovel=73 hivel=80
<region> sample=A5v11.flac lovel=81 hivel=88
<region> sample=A5v12.flac lovel=89 hivel=96
<region> sample=A5v13.flac lovel=97 hivel=104
<region> sample=A5v14.flac lovel=105 hivel=112
<region> sample=A5v15.flac lovel=113 hivel=120
<region> sample=A5v16.flac lovel=121 hivel=127
